<?xml version="1.0" encoding="utf-8"?>
<!-- Generator: Adobe Illustrator 25.0.1, SVG Export Plug-In . SVG Version: 6.00 Build 0)  -->
<svg version="1.1" id="Layer_1" xmlns="http://www.w3.org/2000/svg" xmlns:xlink="http://www.w3.org/1999/xlink" x="0px" y="0px"
	 viewBox="0 0 645.43 409.63" style="enable-background:new 0 0 645.43 409.63;" xml:space="preserve">
<style type="text/css">
	.st0{opacity:0.1;clip-path:url(#SVGID_2_);}
	.st1{fill:#3362CC;}
	.st2{fill:#FFFFFF;}
	.st3{clip-path:url(#SVGID_4_);}
	.st4{fill:#252F6B;}
	.st5{fill:#273375;}
	.st6{fill:#F3F4F5;}
	.st7{fill:#29337A;}
	.st8{fill:#D32030;}
	.st9{clip-path:url(#SVGID_6_);}
	.st10{fill:#F0F0F0;}
	.st11{fill:#751A46;}
	.st12{clip-path:url(#SVGID_8_);}
	.st13{fill:#D80027;}
	.st14{fill:#6DA544;}
	.st15{clip-path:url(#SVGID_10_);}
	.st16{clip-path:url(#SVGID_12_);}
	.st17{clip-path:url(#SVGID_14_);}
	.st18{clip-path:url(#SVGID_16_);}
	.st19{fill:#EFECEC;}
	.st20{fill:#429945;}
	.st21{fill:#0B0B0B;}
	.st22{fill:#EFEFEF;}
	.st23{fill:#49A948;}
	.st24{fill:#151515;}
	.st25{fill:#E73B36;}
	.st26{clip-path:url(#SVGID_18_);}
	.st27{clip-path:url(#SVGID_20_);}
	.st28{fill:#FFDA44;}
	.st29{clip-path:url(#SVGID_22_);}
	.st30{fill:#0052B4;}
	.st31{clip-path:url(#SVGID_24_);}
</style>
<g id="Group_38" transform="translate(-299.9 -4528.579)">
	<g id="aaa" transform="translate(299.9 4528.579)">
		<g>
			<defs>
				<path id="SVGID_1_" d="M325.51,40.69l7.22-0.58l7.42-6.45h10.21l5.97-2.31v4.81l-2.79,5.3l1.45,0.1l-3.37,3.95l5.01,5.49
					l-14.25,13.29l-3.27,0.19l-5.97-4.53l0,0V56.2l-3.85-4.24v-7.22l-3.85-3.27L325.51,40.69L325.51,40.69z M300.47,153.08v8.76
					l10.3,10.5h-2.6l-0.58,8.67h-22.53v-19.94l12.04-12.33L300.47,153.08z M129.05,18.64l19.74-7.12h6.74l12.33-12.52h21.86v8.28
					l-14.45,14.45v17.43l-11.56,12.13v18.01h-11.17l-4.91-6.74l4.04-8.76l-22.63-19.45V18.64z M193.96,120.43l-7.13,6.26v20.61
					h-0.58l-12.9-16.18v-16.76L156.4,97.32l-8.67,8.28l-6.93-6.64l-5.1,4.24l-15.12-12.71h51.32l13,11.56v8.09L193.96,120.43z
					 M118.55,48.2l13.96-0.1l6.55,4.91l-4.43,3.18l16.85,19.84h12.04l6.07,4.82h-34.77l-16.37-17.14L118.55,48.2z M103.53,63.51
					l6.26,7.03v12.23h-4.33L90.62,68.14l-0.29-4.63H103.53z M75.12,84.7h20.42l6.07,5.78h7.7l21.38,21.86l-1.45,2.21h-7.51
					l-4.04-4.04l-4.04,4.04h-9.91l-10.11-10.59h-5.59l-12.9-12.9L75.12,84.7z M237.87,296.57v17.62l-26.96,27.64v6.74l-26.01,27.64
					v10.88l-4.82,3.56v18.97l-9.63-10.3v-30.82l2.89-3.18v-19.26l1.93-3.56v-17.05l-20.22-20.51v-20.51l5.59-5.1l-11.65-12.52
					h-14.64l-10.59-11.56h-3.56l-27.74-27.73v-6.45l-14.44-13.48v-27.93l-26.2-27.55h-13.1l-14.83,9.24L6.74,144.7v-14.16L0,124.19
					v-15.7l17.82-4.43h12.23l4.81,4.82h14.16l5.49,3.85h39.58l9.25,10.59h10.59l4.14-4.14l4.14,4.14h11.56l7.03-11.07l5.88,3.37
					l6.07-7.8l4.24,7.13v8.38l-21.19,21.48v21.76h13.96l13,11.17v-12.42l6.74-6.74l-4.82-4.82v-9.34h11.75l32.74,33.03l-24.46,24.75
					h-9.44l-7.7,7.7v5.1l-13.19,12.52v3.18l2.02,3.27l-0.1,6.16l-2.89,0.1l-3.47-6.26l-22.92,0.29v11.56l9.73,10.3l9.53-1.93v1.54
					l17.14,16.76h44.97l22.44,24.08L237.87,296.57z M252.61,119.37l-21.48,8.38v2.6l-5.78,5.97v16.76l-15.41-14.45v-35.82
					l-9.63-9.25V76.42l-6.16-7.13h-19.84V50.61l5.78-6.93V23.16l17.43-0.1l14.74-14.45h9.14l15.61-15.4h16.47l15.31,12.62
					l-4.24,1.64l5.68,7.41l6.55-3.37h5.78l8.28,8.19l-19.26,12.62v24.37l-2.89,3.76v18.97l-1.93,6.64l3.08,19.55l-10.11,13.77
					L252.61,119.37z M261.95,132.95v-6.16l12.04-0.77h7.22v2.6l-0.48,12.81h-10.4L261.95,132.95z M396.77,320.46l-5.77,5.3v15.12
					h-4.82v-24.75l10.59-10.98L396.77,320.46z M380.4,290.99v23.4l-10.59,8.96v8.28l-3.85,4.14v6.75l-3.95,16.66h-13.19
					l-18.49-17.82v-15.41l-4.82-4.72v-27.83l-4.82-4.82v-5.49h-27.54l-18.68-18.01v-26.29l27.64-14.45h6.84l4.62-4.82h10.98v5.78
					h11.65l5.68,6.74v-2.89h18.11l12.71,14.45v7.99l20.7,19.94h6.45L380.4,290.99z M505.89,303.89h-15.7v-3.07l-9.92-10.02v-6.45
					l11.75,11.75h12.04l4.05,4.05L505.89,303.89z M578.11,378.43l-3.08-4.14l0.29-2.98h4.14L578.11,378.43z M569.73,366.87l-2.7-2.6
					l0.19-6.07h-7.03l-5.1-5.78h-11.94l-4.43,5.78h-8.28l-2.7,0.96h-11.55v-15.6l-0.58-1.93l2.79-8.67l6.26-2.79h5.01l14.64-14.45
					h10.4v-2.98l9.63,10.21v-10.98h2.89l5.78,3.85v3.66l9.63,11.75l0.1,35.73h-13L569.73,366.87z M513.88,295.41l17.72-15.22
					l-1.25,22.44l-7.32,2.6L513.88,295.41z M568.48,204.4h-5.3l-2.22,3.08l2.31,3.37l0.1,8.67l-9.92,7.41v1.93l-2.02,1.25l-3.27-2.6
					l0.1-6.26l10.11-7.9l-0.1-10.88l6.55-7.51l7.7,4.53L568.48,204.4z M578.6,308.13h-15.7l-7.9-8.28l2.89-3.27h17.91l2.98,2.31
					L578.6,308.13z M629.83,130.16v3.95l-39.77,42.09l1.83-15.79l8.38-11.07l-10.21,8.67h-18.3l-13,13.48h3.66v13.77L542,208.74
					l6.36,4.53l-6.84,5.49l-6.07-3.47v-2.7l-6.93-5.97l-5.59,4.72v5.97l4.82,3.85v12.42l-4.33,16.95h-14.06l-7.99,1.73l8.09,9.05
					v3.66l-6.55,11.07l-5.97-7.42v8.96l2.02,3.08l-0.58,5.78l-5.59-0.48l-1.93-7.22l-0.19-15.79l-13.1-13.58h-3.85l-14.73,12.23
					l-0.29,3.85l-4.91,5.97l-8.09-7.8l-0.19-9.34l-12.9-9.73h-14.74l5.78,5.59l-16.76,16.56h-11.27l-18.11-17.24v-7.61l-14.73-15.41
					l7.13-5.97h-8.28l-21.38-24.17l-4.24-2.79v4.43l6.07,6.36v4.53l-3.66,1.93l-9.73-6.65h-6.74l-15.51,15.41h-8.19l-10.3-10.4
					v-5.01h15.41V189.1l20.13-15.79h20.8l4.43-16.76v-8.96h-2.89v-11.36l2.89-3.56l-11.56,3.37v31.49h-8.76v-7.7h-13.48v-26.58
					l40.64-28.31h12.13l12.71,13.19v3.66l-6.26,5.68l-8.19-7.51v5.87l11.66,10.79l27.25-21.09h15.51l20.22-19.26h11.56l24.75-24.08
					h15.31l12.04-12.62l5.49,5.88h7.9l-0.1,15.89l-8.57,9.15h29.08l8.47,8.67h42.37l13.77,13.48h15.7l2.22-2.89h14.93l9.92,10.98
					L629.83,130.16z"/>
			</defs>
			<clipPath id="SVGID_2_">
				<use xlink:href="#SVGID_1_"  style="overflow:visible;"/>
			</clipPath>
			<g id="Map-shape" class="st0">
				<path id="Map-globe" class="st1" d="M325.51,40.69l7.22-0.58l7.42-6.45h10.21l5.97-2.31v4.81l-2.79,5.3l1.45,0.1l-3.37,3.95
					l5.01,5.49l-14.25,13.29l-3.27,0.19l-5.97-4.53l0,0V56.2l-3.85-4.24v-7.22l-3.85-3.27L325.51,40.69L325.51,40.69z
					 M300.47,153.08v8.76l10.3,10.5h-2.6l-0.58,8.67h-22.53v-19.94l12.04-12.33L300.47,153.08z M129.05,18.64l19.74-7.12h6.74
					l12.33-12.52h21.86v8.28l-14.45,14.45v17.43l-11.56,12.13v18.01h-11.17l-4.91-6.74l4.04-8.76l-22.63-19.45V18.64z
					 M193.96,120.43l-7.13,6.26v20.61h-0.58l-12.9-16.18v-16.76L156.4,97.32l-8.67,8.28l-6.93-6.64l-5.1,4.24l-15.12-12.71h51.32
					l13,11.56v8.09L193.96,120.43z M118.55,48.2l13.96-0.1l6.55,4.91l-4.43,3.18l16.85,19.84h12.04l6.07,4.82h-34.77l-16.37-17.14
					L118.55,48.2z M103.53,63.51l6.26,7.03v12.23h-4.33L90.62,68.14l-0.29-4.63H103.53z M75.12,84.7h20.42l6.07,5.78h7.7
					l21.38,21.86l-1.45,2.21h-7.51l-4.04-4.04l-4.04,4.04h-9.91l-10.11-10.59h-5.59l-12.9-12.9L75.12,84.7z M237.87,296.57v17.62
					l-26.96,27.64v6.74l-26.01,27.64v10.88l-4.82,3.56v18.97l-9.63-10.3v-30.82l2.89-3.18v-19.26l1.93-3.56v-17.05l-20.22-20.51
					v-20.51l5.59-5.1l-11.65-12.52h-14.64l-10.59-11.56h-3.56l-27.74-27.73v-6.45l-14.44-13.48v-27.93l-26.2-27.55h-13.1
					l-14.83,9.24L6.74,144.7v-14.16L0,124.19v-15.7l17.82-4.43h12.23l4.81,4.82h14.16l5.49,3.85h39.58l9.25,10.59h10.59l4.14-4.14
					l4.14,4.14h11.56l7.03-11.07l5.88,3.37l6.07-7.8l4.24,7.13v8.38l-21.19,21.48v21.76h13.96l13,11.17v-12.42l6.74-6.74l-4.82-4.82
					v-9.34h11.75l32.74,33.03l-24.46,24.75h-9.44l-7.7,7.7v5.1l-13.19,12.52v3.18l2.02,3.27l-0.1,6.16l-2.89,0.1l-3.47-6.26
					l-22.92,0.29v11.56l9.73,10.3l9.53-1.93v1.54l17.14,16.76h44.97l22.44,24.08L237.87,296.57z M252.61,119.37l-21.48,8.38v2.6
					l-5.78,5.97v16.76l-15.41-14.45v-35.82l-9.63-9.25V76.42l-6.16-7.13h-19.84V50.61l5.78-6.93V23.16l17.43-0.1l14.74-14.45h9.14
					l15.61-15.4h16.47l15.31,12.62l-4.24,1.64l5.68,7.41l6.55-3.37h5.78l8.28,8.19l-19.26,12.62v24.37l-2.89,3.76v18.97l-1.93,6.64
					l3.08,19.55l-10.11,13.77L252.61,119.37z M261.95,132.95v-6.16l12.04-0.77h7.22v2.6l-0.48,12.81h-10.4L261.95,132.95z
					 M396.77,320.46l-5.77,5.3v15.12h-4.82v-24.75l10.59-10.98L396.77,320.46z M380.4,290.99v23.4l-10.59,8.96v8.28l-3.85,4.14v6.75
					l-3.95,16.66h-13.19l-18.49-17.82v-15.41l-4.82-4.72v-27.83l-4.82-4.82v-5.49h-27.54l-18.68-18.01v-26.29l27.64-14.45h6.84
					l4.62-4.82h10.98v5.78h11.65l5.68,6.74v-2.89h18.11l12.71,14.45v7.99l20.7,19.94h6.45L380.4,290.99z M505.89,303.89h-15.7v-3.07
					l-9.92-10.02v-6.45l11.75,11.75h12.04l4.05,4.05L505.89,303.89z M578.11,378.43l-3.08-4.14l0.29-2.98h4.14L578.11,378.43z
					 M569.73,366.87l-2.7-2.6l0.19-6.07h-7.03l-5.1-5.78h-11.94l-4.43,5.78h-8.28l-2.7,0.96h-11.55v-15.6l-0.58-1.93l2.79-8.67
					l6.26-2.79h5.01l14.64-14.45h10.4v-2.98l9.63,10.21v-10.98h2.89l5.78,3.85v3.66l9.63,11.75l0.1,35.73h-13L569.73,366.87z
					 M513.88,295.41l17.72-15.22l-1.25,22.44l-7.32,2.6L513.88,295.41z M568.48,204.4h-5.3l-2.22,3.08l2.31,3.37l0.1,8.67
					l-9.92,7.41v1.93l-2.02,1.25l-3.27-2.6l0.1-6.26l10.11-7.9l-0.1-10.88l6.55-7.51l7.7,4.53L568.48,204.4z M578.6,308.13h-15.7
					l-7.9-8.28l2.89-3.27h17.91l2.98,2.31L578.6,308.13z M629.83,130.16v3.95l-39.77,42.09l1.83-15.79l8.38-11.07l-10.21,8.67h-18.3
					l-13,13.48h3.66v13.77L542,208.74l6.36,4.53l-6.84,5.49l-6.07-3.47v-2.7l-6.93-5.97l-5.59,4.72v5.97l4.82,3.85v12.42
					l-4.33,16.95h-14.06l-7.99,1.73l8.09,9.05v3.66l-6.55,11.07l-5.97-7.42v8.96l2.02,3.08l-0.58,5.78l-5.59-0.48l-1.93-7.22
					l-0.19-15.79l-13.1-13.58h-3.85l-14.73,12.23l-0.29,3.85l-4.91,5.97l-8.09-7.8l-0.19-9.34l-12.9-9.73h-14.74l5.78,5.59
					l-16.76,16.56h-11.27l-18.11-17.24v-7.61l-14.73-15.41l7.13-5.97h-8.28l-21.38-24.17l-4.24-2.79v4.43l6.07,6.36v4.53l-3.66,1.93
					l-9.73-6.65h-6.74l-15.51,15.41h-8.19l-10.3-10.4v-5.01h15.41V189.1l20.13-15.79h20.8l4.43-16.76v-8.96h-2.89v-11.36l2.89-3.56
					l-11.56,3.37v31.49h-8.76v-7.7h-13.48v-26.58l40.64-28.31h12.13l12.71,13.19v3.66l-6.26,5.68l-8.19-7.51v5.87l11.66,10.79
					l27.25-21.09h15.51l20.22-19.26h11.56l24.75-24.08h15.31l12.04-12.62l5.49,5.88h7.9l-0.1,15.89l-8.57,9.15h29.08l8.47,8.67
					h42.37l13.77,13.48h15.7l2.22-2.89h14.93l9.92,10.98L629.83,130.16z"/>
			</g>
		</g>
	</g>
	<g transform="matrix(1, 0, 0, 1, 299.9, 4528.58)">
		<circle id="Ellipse_17-2" class="st2" cx="195.1" cy="148.63" r="32"/>
	</g>
	<g id="saudi-arabia" transform="translate(470.846 4659.512)">
		<g>
			<defs>
				<circle id="SVGID_3_" cx="24.15" cy="17.7" r="24"/>
			</defs>
			<clipPath id="SVGID_4_">
				<use xlink:href="#SVGID_3_"  style="overflow:visible;"/>
			</clipPath>
			<g id="Mask_Group_10" class="st3">
				<g id="australia" transform="translate(0.154 0.488)">
					<path id="Path_79" class="st4" d="M24-6.79v48c13.25,0,24-10.75,24-24S37.25-6.79,24-6.79z"/>
					<path id="Path_80" class="st5" d="M24-6.79c-13.25,0-24,10.75-24,24s10.75,24,24,24C37.26,41.21,37.26-6.79,24-6.79z"/>
					<g id="Group_34">
						<path id="Path_81" class="st6" d="M16.46,30l1.62-2.02l-2.5,0.45l-0.87-2.42l-0.94,2.42l-2.55-0.45l1.62,1.97l-1.68,1.97
							l2.57-0.4l0.87,2.37l0.94-2.37l2.62,0.47L16.46,30z"/>
						<path id="Path_82" class="st6" d="M35.59,31.79l0.92-1.14l-1.42,0.26l-0.49-1.37l-0.53,1.37l-1.45-0.26l0.92,1.12l-0.95,1.12
							l1.45-0.23l0.49,1.34l0.53-1.34l1.48,0.26L35.59,31.79z"/>
						<path id="Path_83" class="st6" d="M35.59,6.52l0.92-1.14l-1.42,0.26L34.6,4.26l-0.53,1.37l-1.45-0.26l0.92,1.12l-0.96,1.12
							l1.45-0.23l0.49,1.34l0.53-1.34l1.48,0.27L35.59,6.52z"/>
						<path id="Path_84" class="st6" d="M41.53,13.06l0.92-1.14l-1.42,0.26l-0.49-1.37L40,12.17l-1.45-0.26l0.92,1.12l-0.95,1.12
							l1.45-0.23l0.49,1.34L41,13.92l1.48,0.26L41.53,13.06z"/>
						<path id="Path_85" class="st6" d="M30.45,15.96l0.92-1.14l-1.42,0.26l-0.49-1.37l-0.53,1.37l-1.45-0.26l0.92,1.12l-0.95,1.12
							l1.45-0.23l0.49,1.34l0.53-1.34l1.48,0.26L30.45,15.96z"/>
					</g>
					<g id="Group_35">
						<path id="Path_86" class="st7" d="M5.04,2.51C4.66,2.99,4.3,3.49,3.96,4.01h2.57L5.04,2.51z"/>
						<path id="Path_87" class="st7" d="M17.43,17.21h2.31l-2.31-2.31V17.21z"/>
						<path id="Path_88" class="st7" d="M9.77-2.11C9.22-1.71,8.69-1.28,8.18-0.82l1.59,1.59V-2.11z"/>
						<path id="Path_89" class="st7" d="M7.46,17.21h2.31V14.9L7.46,17.21z"/>
						<path id="Path_90" class="st7" d="M24-6.79c-2.22,0-4.43,0.31-6.57,0.92v6.64L24-5.8V-6.79z"/>
						<path id="Path_91" class="st7" d="M24,15v-3.33h-3.33L24,15z"/>
						<path id="Path_92" class="st7" d="M0.99,17.21l5.55-5.55H0.65C0.22,13.48,0,15.34,0,17.21H0.99z"/>
						<path id="Path_93" class="st7" d="M20.67,4H24V0.67L20.67,4z"/>
					</g>
					<g id="Group_36">
						<path id="Path_94" class="st2" d="M24,15.7V15l-3.33-3.33H24v-1.19h-5.23L24,15.7z"/>
						<path id="Path_95" class="st2" d="M6.54,4H3.96C3.71,4.39,3.46,4.79,3.23,5.2h5.05l-3-3C5.2,2.3,5.12,2.4,5.04,2.5L6.54,4z"/>
						<path id="Path_96" class="st2" d="M9.77,14.9v2.31h1.19v-4.06L6.9,17.21h0.55L9.77,14.9z"/>
						<path id="Path_97" class="st2" d="M17.43-5.87c-0.4,0.11-0.8,0.24-1.19,0.37v8.01L24-5.24V-5.8l-6.57,6.57V-5.87z"/>
						<path id="Path_98" class="st2" d="M9.73,11.67l0.04-0.04l0,0l1.15-1.15H0.97c-0.11,0.39-0.22,0.79-0.31,1.19h5.88l-5.55,5.54
							h3.19C4.18,17.21,9.73,11.67,9.73,11.67z"/>
						<path id="Path_99" class="st2" d="M0.99,17.21l5.55-5.55L0.99,17.21z"/>
						<path id="Path_100" class="st2" d="M24,5.2V4h-3.33L24,0.67v-3.19L16.28,5.2L24,5.2z"/>
						<path id="Path_101" class="st2" d="M24,0.67L20.67,4L24,0.67z"/>
						<path id="Path_102" class="st2" d="M9.77,0.77L8.18-0.82c-0.57,0.5-1.11,1.02-1.62,1.57l3.22,3.22l0,0L9.8,4l1.16,1.16v-8.09
							c-0.4,0.26-0.8,0.53-1.19,0.82V0.77z"/>
						<path id="Path_103" class="st2" d="M17.43,14.9l2.31,2.31h3.05l-6.55-6.55v6.55h1.19V14.9z"/>
					</g>
					<g id="Group_37">
						<path id="Path_104" class="st8" d="M9.77,3.96L9.8,4L9.77,3.96z"/>
						<path id="Path_105" class="st8" d="M19.97,11.67l-1.19-1.19H24V5.2h-7.72l-0.04,0.04V5.2h0.04L24-2.52v-2.72l-7.76,7.76V-5.5
							c-1.86,0.63-3.63,1.5-5.28,2.57v8.09L11,5.2h-0.04V5.16L9.8,4L9.81,4H9.77V3.96L6.55,0.74C6.11,1.21,5.69,1.69,5.28,2.2l3,3
							H3.23C2.26,6.86,1.5,8.63,0.97,10.48h9.95l0.04-0.04v0.04h-0.04l-1.15,1.15v0.04H9.73l-5.54,5.54H6.9l4.06-4.06v4.06h5.28
							v-6.55l6.56,6.55h0.9c0.1-0.11,0.21-0.21,0.31-0.32V15.7L19.97,11.67z"/>
						<path id="Path_106" class="st8" d="M16.24,2.51L24-5.24l0,0L16.24,2.51z"/>
						<path id="Path_107" class="st8" d="M9.77,11.67v-0.04l-0.04,0.04H9.77z"/>
						<path id="Path_108" class="st8" d="M10.96,10.43l-0.04,0.04h0.04V10.43z"/>
						<path id="Path_109" class="st8" d="M16.24,5.24l0.04-0.04h-0.04V5.24z"/>
						<path id="Path_110" class="st8" d="M9.77,4h0.04L9.8,4L9.77,3.96V4z"/>
						<path id="Path_111" class="st8" d="M11,5.2l-0.04-0.04V5.2H11z"/>
					</g>
				</g>
			</g>
		</g>
	</g>
	<g transform="matrix(1, 0, 0, 1, 299.9, 4528.58)">
		<circle id="Ellipse_19-2" class="st2" cx="515.1" cy="212.63" r="32"/>
	</g>
	<g id="saudi-arabia-2" transform="translate(790.846 4723.512)">
		<g>
			<defs>
				<circle id="SVGID_5_" cx="24.15" cy="17.7" r="24"/>
			</defs>
			<clipPath id="SVGID_6_">
				<use xlink:href="#SVGID_5_"  style="overflow:visible;"/>
			</clipPath>
			<g id="Mask_Group_2" class="st9">
				<g id="qatar" transform="translate(0.154 0.488)">
					<circle id="Ellipse_30" class="st10" cx="24" cy="17.21" r="24"/>
					<path id="Path_51" class="st11" d="M48,17.21c0-13.25-10.74-24-24-24c-4.52,0-8.95,1.28-12.78,3.68l5.26,2.23l-7.1,3.02
						l7.1,3.02l-7.1,3.02l7.1,3.01l-7.1,3.01l7.1,3.01l-7.1,3.01l7.1,3.01l-7.1,3.01l7.1,3.01l-7.1,3.01l7.1,3.01l-5.26,2.23
						c11.22,7.05,26.04,3.67,33.09-7.55C46.72,26.16,48,21.73,48,17.21z"/>
				</g>
			</g>
		</g>
	</g>
	<g transform="matrix(1, 0, 0, 1, 299.9, 4528.58)">
		<circle id="Ellipse_20-2" class="st2" cx="451.1" cy="148.63" r="32"/>
	</g>
	<g id="saudi-arabia-3" transform="translate(726.846 4659.512)">
		<g>
			<defs>
				<circle id="SVGID_7_" cx="24.15" cy="17.7" r="24"/>
			</defs>
			<clipPath id="SVGID_8_">
				<use xlink:href="#SVGID_7_"  style="overflow:visible;"/>
			</clipPath>
			<g id="Mask_Group_1" class="st12">
				<g id="kuwait" transform="translate(0.155 0.488)">
					<path id="Path_47" class="st10" d="M46.51,25.56c1.99-5.39,1.99-11.31,0-16.7L24,6.78L1.49,8.86c-1.99,5.39-1.99,11.31,0,16.7
						L24,27.65L46.51,25.56z"/>
					<path id="Path_48" class="st13" d="M24,41.21c10.04,0,19.01-6.24,22.51-15.65H1.49C4.99,34.97,13.96,41.21,24,41.21z"/>
					<path id="Path_49" class="st14" d="M24-6.79C13.96-6.79,4.99-0.54,1.49,8.86h45.01C43.01-0.54,34.04-6.79,24-6.79z"/>
					<path id="Path_50" d="M7.03,0.24c-9.37,9.37-9.37,24.57,0,33.94l8.62-8.62V8.86L7.03,0.24z"/>
				</g>
			</g>
		</g>
	</g>
	<g transform="matrix(1, 0, 0, 1, 299.9, 4528.58)">
		<circle id="Ellipse_21-2" class="st2" cx="387.1" cy="212.63" r="32"/>
	</g>
	<g id="saudi-arabia-4" transform="translate(662.846 4723.512)">
		<g>
			<defs>
				<circle id="SVGID_9_" cx="24.15" cy="17.7" r="24"/>
			</defs>
			<clipPath id="SVGID_10_">
				<use xlink:href="#SVGID_9_"  style="overflow:visible;"/>
			</clipPath>
			<g id="Mask_Group_5" class="st15">
				<g id="oman" transform="translate(0.154 0.488)">
					<circle id="Ellipse_33" class="st10" cx="24" cy="17.21" r="24"/>
					<g id="Group_30">
						<path id="Path_60" class="st13" d="M0,17.21C0,26,4.8,34.09,12.52,38.29V-3.87C4.8,0.33,0,8.42,0,17.21z"/>
						<path id="Path_61" class="st13" d="M46.51,25.56c1.99-5.39,1.99-11.31,0-16.7H1.49c-1.99,5.39-1.99,11.31,0,16.7L24,27.65
							L46.51,25.56z"/>
					</g>
					<path id="Path_62" class="st14" d="M24,41.21c10.04,0,19.01-6.24,22.51-15.65H1.49C4.99,34.97,13.96,41.21,24,41.21z"/>
					<path id="Path_63" class="st13" d="M0,17.21c0,10.84,7.27,20.34,17.74,23.17V-5.96C7.27-3.13,0,6.37,0,17.21z"/>
					<path id="Path_64" class="st10" d="M14.68,3.77l-2.21-2.21l-1.47,1.48L9.52,1.56L7.3,3.77l1.48,1.48L7.3,6.73l2.21,2.21
						l1.48-1.48l1.48,1.48l2.21-2.21L13.2,5.25L14.68,3.77z"/>
				</g>
			</g>
		</g>
	</g>
	<g transform="matrix(1, 0, 0, 1, 299.9, 4528.58)">
		<circle id="Ellipse_22-2" class="st2" cx="259.1" cy="212.63" r="32"/>
	</g>
	<g id="saudi-arabia-5" transform="translate(534.846 4723.512)">
		<g>
			<defs>
				<circle id="SVGID_11_" cx="24.15" cy="17.7" r="24"/>
			</defs>
			<clipPath id="SVGID_12_">
				<use xlink:href="#SVGID_11_"  style="overflow:visible;"/>
			</clipPath>
			<g id="Mask_Group_7" class="st16">
				<g id="canada" transform="translate(0.154 0.488)">
					<circle id="Ellipse_35" class="st10" cx="24" cy="17.21" r="24"/>
					<g id="Group_32">
						<path id="Path_68" class="st13" d="M48,17.21C48,8,42.73-0.4,34.44-4.41v43.24C42.73,34.82,48,26.42,48,17.21z"/>
						<path id="Path_69" class="st13" d="M0,17.21c0,9.21,5.27,17.61,13.56,21.62V-4.41C5.27-0.4,0,8,0,17.21z"/>
						<path id="Path_70" class="st13" d="M28.17,20.34l4.17-2.09l-2.09-1.04v-2.09l-4.17,2.09l2.09-4.17h-2.09L24,9.91l-2.09,3.13
							h-2.09l2.09,4.17l-4.17-2.09v2.09l-2.09,1.04l4.17,2.09l-1.04,2.09h4.17v3.13h2.09v-3.13h4.17L28.17,20.34z"/>
					</g>
				</g>
			</g>
		</g>
	</g>
	<g transform="matrix(1, 0, 0, 1, 299.9, 4528.58)">
		<circle id="Ellipse_23-2" class="st2" cx="323.1" cy="148.63" r="32"/>
	</g>
	<g id="saudi-arabia-6" transform="translate(598.846 4659.512)">
		<g>
			<defs>
				<circle id="SVGID_13_" cx="24.15" cy="17.7" r="24"/>
			</defs>
			<clipPath id="SVGID_14_">
				<use xlink:href="#SVGID_13_"  style="overflow:visible;"/>
			</clipPath>
			<g id="Mask_Group_6" class="st17">
				<g id="lebanon" transform="translate(0.154 0.488)">
					<circle id="Ellipse_34" class="st10" cx="24" cy="17.21" r="24"/>
					<g id="Group_31">
						<path id="Path_65" class="st13" d="M24-6.79c-9.21,0-17.61,5.27-21.62,13.56h43.24C41.61-1.52,33.21-6.79,24-6.79z"/>
						<path id="Path_66" class="st13" d="M24,41.21c9.21,0,17.61-5.27,21.62-13.56H2.38C6.39,35.94,14.79,41.21,24,41.21z"/>
					</g>
					<path id="Path_67" class="st14" d="M30.26,21.39L24,9.91l-6.26,11.47h4.7v3.13h3.13v-3.13L30.26,21.39z"/>
				</g>
			</g>
		</g>
	</g>
	<g transform="matrix(1, 0, 0, 1, 299.9, 4528.58)">
		<circle id="Ellipse_24-2" class="st2" cx="451.1" cy="276.63" r="32"/>
	</g>
	<g id="saudi-arabia-7" transform="translate(726.846 4787.512)">
		<g>
			<defs>
				<circle id="SVGID_15_" cx="24.15" cy="17.7" r="24"/>
			</defs>
			<clipPath id="SVGID_16_">
				<use xlink:href="#SVGID_15_"  style="overflow:visible;"/>
			</clipPath>
			<g id="Mask_Group_3" class="st18">
				<g id="united-arab-emirates" transform="translate(0.154 0.488)">
					<circle id="Ellipse_31" class="st2" cx="24" cy="17.21" r="24"/>
					<path id="Path_52" class="st19" d="M46.63,9.21H31.84c0.64,5.28,0.65,10.62,0.01,15.91h14.81
						C48.46,19.97,48.45,14.36,46.63,9.21z"/>
					<path id="Path_53" class="st20" d="M31.84,9.21h14.79c0-0.01,0-0.01-0.01-0.02C43.48,0.36,35.49-5.84,26.16-6.69
						C29.83-4.68,30.9,1.7,31.84,9.21z"/>
					<path id="Path_54" class="st21" d="M26.16,41.11c9.35-0.85,17.36-7.07,20.48-15.92c0.01-0.02,0.01-0.05,0.02-0.07H31.85
						C30.92,32.67,29.84,39.09,26.16,41.11z"/>
					<path id="Path_55" class="st22" d="M0,17.21c0,2.69,0.45,5.37,1.34,7.91h31.75c0.63-5.28,0.63-10.62-0.01-15.91H1.37
						C0.46,11.78,0,14.49,0,17.21z"/>
					<path id="Path_56" class="st23" d="M1.38,9.19L1.37,9.21h31.71c-0.94-7.51-3.25-13.89-6.92-15.9c-0.71-0.06-1.43-0.1-2.16-0.1
						C13.84-6.79,4.78-0.39,1.38,9.19z"/>
					<path id="Path_57" class="st24" d="M33.09,25.12H1.34c0.01,0.02,0.02,0.05,0.02,0.07C4.75,34.79,13.82,41.21,24,41.21
						c0.73,0,1.44-0.04,2.16-0.1C29.84,39.09,32.16,32.67,33.09,25.12z"/>
					<path id="Path_58" class="st25" d="M0,17.21c0,9.7,5.84,18.44,14.79,22.16V-4.95C5.83-1.23,0,7.51,0,17.21z"/>
				</g>
			</g>
		</g>
	</g>
	<g transform="matrix(1, 0, 0, 1, 299.9, 4528.58)">
		<circle id="Ellipse_25-2" class="st2" cx="323.1" cy="276.63" r="32"/>
	</g>
	<g id="saudi-arabia-8" transform="translate(598.846 4787.512)">
		<g>
			<defs>
				<circle id="SVGID_17_" cx="24.15" cy="17.7" r="24"/>
			</defs>
			<clipPath id="SVGID_18_">
				<use xlink:href="#SVGID_17_"  style="overflow:visible;"/>
			</clipPath>
			<g id="Mask_Group_4" class="st26">
				<g id="bahrain" transform="translate(0.154 0.488)">
					<circle id="Ellipse_32" class="st10" cx="24" cy="17.21" r="24"/>
					<path id="Path_59" class="st13" d="M24-6.79c-4.64-0.01-9.17,1.33-13.06,3.86l6.17,4.14l-7.72,4l7.72,4l-7.72,4l7.72,4l-7.72,4
						l7.72,4l-7.72,4l7.72,4l-6.17,4.14c11.12,7.21,25.98,4.04,33.19-7.08s4.04-25.98-7.08-33.19C33.17-5.45,28.63-6.79,24-6.79z"/>
				</g>
			</g>
		</g>
	</g>
	<g transform="matrix(1, 0, 0, 1, 299.9, 4528.58)">
		<circle id="Ellipse_26-2" class="st2" cx="195.1" cy="276.63" r="32"/>
	</g>
	<g id="saudi-arabia-9" transform="translate(470.846 4787.512)">
		<g>
			<defs>
				<circle id="SVGID_19_" cx="24.15" cy="17.7" r="24"/>
			</defs>
			<clipPath id="SVGID_20_">
				<use xlink:href="#SVGID_19_"  style="overflow:visible;"/>
			</clipPath>
			<g id="Mask_Group_8" class="st27">
				<g id="germany" transform="translate(0.154 0.488)">
					<path id="Path_71" class="st28" d="M1.49,25.56c4.61,12.43,18.43,18.77,30.86,14.15c6.55-2.43,11.72-7.6,14.15-14.15L24,23.47
						L1.49,25.56z"/>
					<path id="Path_72" d="M24-6.79C13.96-6.79,4.99-0.54,1.49,8.86L24,10.95l22.51-2.09C43.01-0.54,34.04-6.79,24-6.79z"/>
					<path id="Path_73" class="st13" d="M1.49,8.86c-1.99,5.39-1.99,11.31,0,16.7h45.01c1.99-5.39,1.99-11.31,0-16.7H1.49z"/>
				</g>
			</g>
		</g>
	</g>
	<g transform="matrix(1, 0, 0, 1, 299.9, 4528.58)">
		<circle id="Ellipse_27-2" class="st2" cx="131.1" cy="212.63" r="32"/>
	</g>
	<g id="saudi-arabia-10" transform="translate(406.846 4723.512)">
		<g>
			<defs>
				<circle id="SVGID_21_" cx="24.15" cy="17.7" r="24"/>
			</defs>
			<clipPath id="SVGID_22_">
				<use xlink:href="#SVGID_21_"  style="overflow:visible;"/>
			</clipPath>
			<g id="Mask_Group_11" class="st29">
				<g id="france" transform="translate(0.154 0.488)">
					<circle id="Ellipse_37" class="st10" cx="24" cy="17.21" r="24"/>
					<path id="Path_112" class="st13" d="M48,17.21C48,7.18,41.76-1.8,32.35-5.29v45.01C41.76,36.23,48,27.25,48,17.21z"/>
					<path id="Path_113" class="st30" d="M0,17.21c0,10.04,6.24,19.01,15.65,22.51V-5.29C6.24-1.8,0,7.18,0,17.21z"/>
				</g>
			</g>
		</g>
	</g>
	<g transform="matrix(1, 0, 0, 1, 299.9, 4528.58)">
		<circle id="Ellipse_28-2" class="st2" cx="387.1" cy="84.63" r="32"/>
	</g>
	<g id="saudi-arabia-11" transform="translate(662.846 4595.512)">
		<circle id="Ellipse_18-12" class="st14" cx="24.15" cy="17.7" r="24"/>
		<g id="Group_29" transform="translate(10.034 13.76)">
			<path id="Path_43" class="st10" d="M3.48,8.71c0,1.77,1.44,3.21,3.21,3.21h9.62c0,1.48,1.2,2.67,2.67,2.67h3.2
				c1.48,0,2.67-1.2,2.67-2.67V8.71H3.48z"/>
			<path id="Path_44" class="st10" d="M25.12-6.78V0.7c0,1.18-0.96,2.14-2.14,2.14v3.21c2.95,0,5.34-2.39,5.34-5.34v-7.48H25.12z"/>
			<path id="Path_45" class="st10" d="M2.14,0.69c0,1.18-0.96,2.14-2.14,2.14v3.21c2.95,0,5.34-2.39,5.34-5.34v-7.48H2.14V0.69z"/>
			<rect id="Rectangle_33" x="20.31" y="-6.79" class="st10" width="3.21" height="7.48"/>
			<path id="Path_46" class="st10" d="M15.5-2.51c0,0.3-0.24,0.53-0.53,0.53s-0.53-0.24-0.53-0.53v-4.27h-3.21v4.27
				c0,0.3-0.24,0.53-0.53,0.53s-0.53-0.24-0.53-0.53v-4.27H6.95v4.27c0,2.06,1.67,3.74,3.74,3.74c0.77,0,1.52-0.23,2.14-0.67
				c0.76,0.53,1.69,0.76,2.61,0.64c-0.23,0.96-1.09,1.63-2.07,1.63v3.21c2.95,0,5.34-2.39,5.34-5.34v-7.48H15.5L15.5-2.51L15.5-2.51
				z"/>
			<rect id="Rectangle_34" x="6.95" y="2.83" class="st10" width="4.81" height="3.21"/>
		</g>
	</g>
	<g transform="matrix(1, 0, 0, 1, 299.9, 4528.58)">
		<circle id="Ellipse_29-2" class="st2" cx="259.1" cy="84.63" r="32"/>
	</g>
	<g id="saudi-arabia-12" transform="translate(534.846 4595.512)">
		<g>
			<defs>
				<circle id="SVGID_23_" cx="24.15" cy="17.7" r="24"/>
			</defs>
			<clipPath id="SVGID_24_">
				<use xlink:href="#SVGID_23_"  style="overflow:visible;"/>
			</clipPath>
			<g id="Mask_Group_9" class="st31">
				<g id="united-states" transform="translate(0.154 0.488)">
					<circle id="Ellipse_36" class="st10" cx="24" cy="17.21" r="24"/>
					<g id="Group_33">
						<path id="Path_74" class="st13" d="M22.96,17.21H48c0-2.11-0.28-4.22-0.83-6.26H22.96V17.21z"/>
						<path id="Path_75" class="st13" d="M22.96,4.69h21.52c-1.47-2.39-3.34-4.51-5.54-6.26H22.96V4.69z"/>
						<path id="Path_76" class="st13" d="M24,41.21c5.43,0.01,10.7-1.83,14.94-5.22H9.06C13.3,39.38,18.57,41.22,24,41.21z"/>
						<path id="Path_77" class="st13" d="M3.52,29.73h40.95c1.2-1.95,2.1-4.06,2.7-6.26H0.83C1.42,25.68,2.33,27.79,3.52,29.73z"/>
					</g>
					<path id="Path_78" class="st30" d="M11.12-3.04h2.18l-2.03,1.48l0.78,2.39l-2.03-1.48L7.98,0.83l0.67-2.07
						C6.86,0.26,5.29,2.01,3.99,3.95h0.7L3.4,4.89C3.2,5.23,3.01,5.57,2.82,5.92l0.62,1.9L2.29,6.98C2,7.59,1.74,8.21,1.5,8.85
						l0.68,2.1H4.7l-2.04,1.48l0.78,2.39L1.4,13.33l-1.22,0.89C0.06,15.21,0,16.21,0,17.21h24v-24C19.44-6.79,14.97-5.49,11.12-3.04
						z M12.05,14.81l-2.03-1.48l-2.03,1.48l0.78-2.39l-2.03-1.48h2.51l0.78-2.39l0.78,2.39h2.51l-2.03,1.48L12.05,14.81z
						 M11.27,5.43l0.78,2.39l-2.03-1.48L7.98,7.82l0.78-2.39L6.72,3.95h2.51l0.78-2.39l0.78,2.39h2.51L11.27,5.43z M20.66,14.81
						l-2.03-1.48l-2.03,1.48l0.78-2.39l-2.03-1.48h2.51l0.78-2.39l0.78,2.39h2.51l-2.03,1.48L20.66,14.81z M19.88,5.43l0.78,2.39
						l-2.03-1.48l-2.03,1.48l0.78-2.39l-2.03-1.48h2.51l0.78-2.39l0.78,2.39h2.51L19.88,5.43z M19.88-1.56l0.78,2.39l-2.03-1.48
						l-2.03,1.48l0.78-2.39l-2.03-1.48h2.51l0.78-2.39l0.78,2.39h2.51L19.88-1.56z"/>
				</g>
			</g>
		</g>
	</g>
</g>
</svg>
